<svg width="120" height="60" viewBox="0 0 120 60" fill="none" xmlns="http://www.w3.org/2000/svg">
<path d="M25.91 37V24.57L23.2 26.21V24.22L25.91 22.6H27.72V37H25.91ZM31.125 36.99L31.135 35.39L37.525 29.64C38.0583 29.16 38.415 28.7067 38.595 28.28C38.7817 27.8467 38.875 27.4033 38.875 26.95C38.875 26.3967 38.7483 25.8967 38.495 25.45C38.2417 25.0033 37.895 24.65 37.455 24.39C37.0217 24.13 36.5283 24 35.975 24C35.4017 24 34.8917 24.1367 34.445 24.41C33.9983 24.6767 33.645 25.0333 33.385 25.48C33.1317 25.9267 33.0083 26.4133 33.015 26.94H31.195C31.195 26.0333 31.405 25.2333 31.825 24.54C32.245 23.84 32.815 23.2933 33.535 22.9C34.2617 22.5 35.085 22.3 36.005 22.3C36.8983 22.3 37.6983 22.5067 38.405 22.92C39.1117 23.3267 39.6683 23.8833 40.075 24.59C40.4883 25.29 40.695 26.0833 40.695 26.97C40.695 27.5967 40.615 28.14 40.455 28.6C40.3017 29.06 40.0617 29.4867 39.735 29.88C39.4083 30.2667 38.9983 30.68 38.505 31.12L33.195 35.89L32.965 35.29H40.695V36.99H31.125ZM47.9475 37.3C47.0142 37.3 46.1808 37.09 45.4475 36.67C44.7208 36.2433 44.1442 35.6667 43.7175 34.94C43.2975 34.2067 43.0875 33.3733 43.0875 32.44V27.16C43.0875 26.2267 43.2975 25.3933 43.7175 24.66C44.1442 23.9267 44.7208 23.35 45.4475 22.93C46.1808 22.51 47.0142 22.3 47.9475 22.3C48.8808 22.3 49.7142 22.51 50.4475 22.93C51.1808 23.35 51.7575 23.9267 52.1775 24.66C52.5975 25.3933 52.8075 26.2267 52.8075 27.16V32.44C52.8075 33.3733 52.5975 34.2067 52.1775 34.94C51.7575 35.6667 51.1808 36.2433 50.4475 36.67C49.7142 37.09 48.8808 37.3 47.9475 37.3ZM47.9475 35.59C48.5142 35.59 49.0275 35.4533 49.4875 35.18C49.9475 34.9067 50.3142 34.54 50.5875 34.08C50.8608 33.6133 50.9975 33.1 50.9975 32.54V27.05C50.9975 26.4833 50.8608 25.97 50.5875 25.51C50.3142 25.05 49.9475 24.6833 49.4875 24.41C49.0275 24.1367 48.5142 24 47.9475 24C47.3875 24 46.8742 24.1367 46.4075 24.41C45.9475 24.6833 45.5808 25.05 45.3075 25.51C45.0342 25.97 44.8975 26.4833 44.8975 27.05V32.54C44.8975 33.1 45.0342 33.6133 45.3075 34.08C45.5808 34.54 45.9475 34.9067 46.4075 35.18C46.8742 35.4533 47.3875 35.59 47.9475 35.59ZM58.4109 37L62.5409 31.54L58.5009 26.2H60.6209L63.5809 30.16L66.5109 26.2H68.6309L64.5909 31.54L68.7309 37H66.6009L63.5809 32.92L60.5409 37H58.4109ZM79.2475 37.3C78.3342 37.3 77.5042 37.08 76.7575 36.64C76.0175 36.2 75.4275 35.6 74.9875 34.84C74.5542 34.0733 74.3375 33.21 74.3375 32.25V27.46C74.3375 26.4533 74.5542 25.5633 74.9875 24.79C75.4275 24.01 76.0275 23.4033 76.7875 22.97C77.5542 22.53 78.4275 22.31 79.4075 22.31C80.2008 22.31 80.9375 22.4733 81.6175 22.8C82.3042 23.12 82.8808 23.5833 83.3475 24.19L82.0175 25.37C81.7308 24.95 81.3575 24.6167 80.8975 24.37C80.4375 24.1233 79.9408 24 79.4075 24C78.7742 24 78.2108 24.1533 77.7175 24.46C77.2308 24.76 76.8475 25.16 76.5675 25.66C76.2875 26.1533 76.1475 26.6867 76.1475 27.26V30.15L75.7575 29.71C76.1775 29.11 76.7108 28.63 77.3575 28.27C78.0042 27.91 78.7042 27.73 79.4575 27.73C80.3508 27.73 81.1508 27.94 81.8575 28.36C82.5708 28.78 83.1308 29.35 83.5375 30.07C83.9508 30.7833 84.1575 31.5867 84.1575 32.48C84.1575 33.3733 83.9342 34.1833 83.4875 34.91C83.0408 35.6367 82.4442 36.2167 81.6975 36.65C80.9575 37.0833 80.1408 37.3 79.2475 37.3ZM79.2475 35.58C79.8208 35.58 80.3442 35.4433 80.8175 35.17C81.2908 34.89 81.6642 34.5167 81.9375 34.05C82.2175 33.5767 82.3575 33.0533 82.3575 32.48C82.3575 31.9067 82.2175 31.3833 81.9375 30.91C81.6642 30.4367 81.2908 30.0633 80.8175 29.79C80.3508 29.51 79.8308 29.37 79.2575 29.37C78.6842 29.37 78.1608 29.51 77.6875 29.79C77.2208 30.0633 76.8475 30.4367 76.5675 30.91C76.2875 31.3833 76.1475 31.9067 76.1475 32.48C76.1475 33.0467 76.2842 33.5667 76.5575 34.04C76.8375 34.5067 77.2108 34.88 77.6775 35.16C78.1508 35.44 78.6742 35.58 79.2475 35.58ZM91.6194 37.3C90.686 37.3 89.8527 37.09 89.1194 36.67C88.3927 36.2433 87.816 35.6667 87.3894 34.94C86.9694 34.2067 86.7594 33.3733 86.7594 32.44V27.16C86.7594 26.2267 86.9694 25.3933 87.3894 24.66C87.816 23.9267 88.3927 23.35 89.1194 22.93C89.8527 22.51 90.686 22.3 91.6194 22.3C92.5527 22.3 93.386 22.51 94.1194 22.93C94.8527 23.35 95.4294 23.9267 95.8494 24.66C96.2694 25.3933 96.4794 26.2267 96.4794 27.16V32.44C96.4794 33.3733 96.2694 34.2067 95.8494 34.94C95.4294 35.6667 94.8527 36.2433 94.1194 36.67C93.386 37.09 92.5527 37.3 91.6194 37.3ZM91.6194 35.59C92.186 35.59 92.6994 35.4533 93.1594 35.18C93.6194 34.9067 93.986 34.54 94.2594 34.08C94.5327 33.6133 94.6694 33.1 94.6694 32.54V27.05C94.6694 26.4833 94.5327 25.97 94.2594 25.51C93.986 25.05 93.6194 24.6833 93.1594 24.41C92.6994 24.1367 92.186 24 91.6194 24C91.0594 24 90.546 24.1367 90.0794 24.41C89.6194 24.6833 89.2527 25.05 88.9794 25.51C88.706 25.97 88.5694 26.4833 88.5694 27.05V32.54C88.5694 33.1 88.706 33.6133 88.9794 34.08C89.2527 34.54 89.6194 34.9067 90.0794 35.18C90.546 35.4533 91.0594 35.59 91.6194 35.59Z" fill="#D0D0D0"/>
</svg>
